<svg width="14" height="14" viewBox="0 0 14 14" fill="none" xmlns="http://www.w3.org/2000/svg">
<path fill-rule="evenodd" clip-rule="evenodd" d="M7.0005 1.74974C4.101 1.74974 1.7505 4.10024 1.7505 6.99974C1.7505 9.89923 4.101 12.2497 7.0005 12.2497C9.89999 12.2497 12.2505 9.89923 12.2505 6.99974C12.2505 4.10024 9.89999 1.74974 7.0005 1.74974ZM0.583832 6.99974C0.583832 3.45591 3.45667 0.583069 7.0005 0.583069C10.5443 0.583069 13.4172 3.45591 13.4172 6.99974C13.4172 10.5436 10.5443 13.4164 7.0005 13.4164C3.45667 13.4164 0.583832 10.5436 0.583832 6.99974Z" fill="#7A7A7A"/>
<path fill-rule="evenodd" clip-rule="evenodd" d="M7.0005 2.9164C7.32266 2.9164 7.58383 3.17757 7.58383 3.49974V6.63922L9.59471 7.64465C9.88286 7.78873 9.99966 8.13912 9.85558 8.42728C9.7115 8.71543 9.36111 8.83223 9.07296 8.68815L6.73962 7.52148C6.542 7.42267 6.41716 7.22069 6.41716 6.99974V3.49974C6.41716 3.17757 6.67833 2.9164 7.0005 2.9164Z" fill="#7A7A7A"/>
</svg>
