<svg width="12" height="14" viewBox="0 0 12 14" fill="none" xmlns="http://www.w3.org/2000/svg">
<path fill-rule="evenodd" clip-rule="evenodd" d="M2.08382 2.9164C1.76166 2.9164 1.50049 3.17757 1.50049 3.49974V11.6664C1.50049 11.9886 1.76166 12.2497 2.08382 12.2497H10.2505C10.5727 12.2497 10.8338 11.9886 10.8338 11.6664V3.49974C10.8338 3.17757 10.5727 2.9164 10.2505 2.9164H2.08382ZM0.333824 3.49974C0.333824 2.53324 1.11733 1.74974 2.08382 1.74974H10.2505C11.217 1.74974 12.0005 2.53324 12.0005 3.49974V11.6664C12.0005 12.6329 11.217 13.4164 10.2505 13.4164H2.08382C1.11733 13.4164 0.333824 12.6329 0.333824 11.6664V3.49974Z" fill="#7A7A7A"/>
<path fill-rule="evenodd" clip-rule="evenodd" d="M8.50049 0.583069C8.82266 0.583069 9.08383 0.844236 9.08383 1.1664V3.49974C9.08383 3.8219 8.82266 4.08307 8.50049 4.08307C8.17833 4.08307 7.91716 3.8219 7.91716 3.49974V1.1664C7.91716 0.844236 8.17833 0.583069 8.50049 0.583069Z" fill="#7A7A7A"/>
<path fill-rule="evenodd" clip-rule="evenodd" d="M3.83382 0.583069C4.15599 0.583069 4.41716 0.844236 4.41716 1.1664V3.49974C4.41716 3.8219 4.15599 4.08307 3.83382 4.08307C3.51166 4.08307 3.25049 3.8219 3.25049 3.49974V1.1664C3.25049 0.844236 3.51166 0.583069 3.83382 0.583069Z" fill="#7A7A7A"/>
<path fill-rule="evenodd" clip-rule="evenodd" d="M0.333824 5.83307C0.333824 5.5109 0.594991 5.24974 0.917158 5.24974H11.4172C11.7393 5.24974 12.0005 5.5109 12.0005 5.83307C12.0005 6.15523 11.7393 6.4164 11.4172 6.4164H0.917158C0.594991 6.4164 0.333824 6.15523 0.333824 5.83307Z" fill="#7A7A7A"/>
</svg>
